<svg width="27" height="18" viewBox="0 0 27 18" fill="none" xmlns="http://www.w3.org/2000/svg">
<path fill-rule="evenodd" clip-rule="evenodd" d="M0.499999 9C0.499999 9.25045 0.597823 9.49063 0.771952 9.66773C0.946082 9.84482 1.18225 9.94431 1.42851 9.94431L23.3284 9.94431L17.4843 15.8859C17.398 15.9737 17.3295 16.078 17.2828 16.1927C17.2361 16.3074 17.212 16.4303 17.212 16.5545C17.212 16.6787 17.2361 16.8016 17.2828 16.9163C17.3295 17.031 17.398 17.1353 17.4843 17.2231C17.5707 17.3109 17.6732 17.3805 17.786 17.428C17.8987 17.4755 18.0196 17.5 18.1417 17.5C18.2638 17.5 18.3847 17.4755 18.4975 17.428C18.6103 17.3805 18.7128 17.3109 18.7991 17.2231L26.2272 9.66857C26.3137 9.58086 26.3823 9.47665 26.4291 9.36192C26.4759 9.2472 26.5 9.12421 26.5 9C26.5 8.87579 26.4759 8.7528 26.4291 8.63808C26.3823 8.52335 26.3137 8.41915 26.2272 8.33143L18.7991 0.776933C18.7128 0.689136 18.6103 0.619489 18.4975 0.571973C18.3847 0.524457 18.2638 0.500001 18.1417 0.500001C18.0196 0.500001 17.8988 0.524457 17.786 0.571973C17.6732 0.619489 17.5707 0.689136 17.4843 0.776933C17.398 0.864732 17.3295 0.968963 17.2828 1.08368C17.2361 1.19839 17.212 1.32134 17.212 1.4455C17.212 1.56967 17.2361 1.69262 17.2828 1.80734C17.3295 1.92205 17.398 2.02628 17.4843 2.11408L23.3284 8.05569L1.42851 8.05569C1.18225 8.05569 0.946082 8.15518 0.771952 8.33227C0.597823 8.50936 0.499999 8.74955 0.499999 9Z" fill="white"/>
</svg>
